#!OML:ASF F:\VICON\USERDATA\INSTALL\rory3\rory3.ASF
:FULLY-SPECIFIED
:DEGREES
1611
root 1.29308 16.1409 0.034189 3.07858 -4.61079 5.15378
lowerback 8.67583 -1.341 7.21953
upperback -1.82652 -0.341917 9.89469
thorax -6.85898 -0.235837 6.58435
lowerneck -9.39539 -8.37253 -7.63011
upperneck 27.8091 -13.2512 9.13851
head 11.778 -5.75095 2.88579
rclavicle 1.70955e-014 -9.54166e-015
rhumerus 33.6457 -38.7244 -19.1412
rradius 56.9799
rwrist 25.0875
rhand 16.6205 3.20422
rfingers 7.12502
rthumb 41.3747 -21.5919
lclavicle 1.70955e-014 -9.54166e-015
lhumerus -87.7441 -49.9346 115.607
lradius 97.9249
lwrist 30.5374
lhand 18.7631 18.9695
lfingers 7.12502
lthumb 43.3811 43.0794
rfemur -5.95307 18.531 6.59112
rtibia 17.085
rfoot -12.1493 -16.7395
rtoes -11.4769
lfemur 3.82757 -7.03729 -26.7032
ltibia 3.97569e-015
lfoot -3.91771 9.72016
ltoes -5.051
1612
root 1.30818 16.1385 0.0258391 2.98939 -4.88825 5.18494
lowerback 8.83305 -1.37136 7.44367
upperback -1.65646 -0.347061 10.0637
thorax -6.76871 -0.243107 6.6449
lowerneck -9.43166 -8.48543 -7.49103
upperneck 27.9894 -13.4613 9.11078
head 11.8659 -5.82547 2.82082
rclavicle 3.22031e-014 -4.77083e-014
rhumerus 33.6713 -38.5433 -19.3896
rradius 57.0001
rwrist 25.1085
rhand 16.769 3.30438
rfingers 7.12502
rthumb 41.5141 -21.4464
lclavicle 3.22031e-014 -4.77083e-014
lhumerus -87.4688 -49.1246 116.371
lradius 98.0259
lwrist 31.0089
lhand 18.5989 18.9061
lfingers 7.12502
lthumb 43.2277 43.0711
rfemur -6.11702 18.646 6.48481
rtibia 17.2472
rfoot -11.9108 -16.7025
rtoes -13.2414
lfemur 3.89227 -6.75522 -26.8025
ltibia 1.27222e-014
lfoot -3.90812 9.67691
ltoes -5.10844
1613
root 1.32367 16.1356 0.0163201 2.9246 -5.15272 5.23922
lowerback 9.0425 -1.4097 7.63429
upperback -1.59888 -0.34474 10.2146
thorax -6.8305 -0.246379 6.71313
lowerneck -9.18052 -8.53909 -7.49342
upperneck 28.0528 -13.6066 9.24557
head 11.8671 -5.88159 2.86108
rclavicle 6.36111e-015 -8.26944e-014
rhumerus 33.536 -38.195 -19.5125
rradius 57.0521
rwrist 25.0008
rhand 16.9633 3.34924
rfingers 7.12502
rthumb 41.6964 -21.3417
lclavicle 6.36111e-015 -8.26944e-014
lhumerus -87.4378 -48.3654 117.182
lradius 98.1044
lwrist 31.3917
lhand 18.4715 18.8628
lfingers 7.12502
lthumb 43.1086 43.0703
rfemur -6.29184 18.7801 6.33557
rtibia 17.411
rfoot -11.8934 -16.6137
rtoes -13.2926
lfemur 3.91943 -6.49059 -26.9242
ltibia -3.18055e-015
lfoot -3.85644 9.65231
ltoes -4.85847
1614
root 1.33922 16.1307 0.00675741 2.77073 -5.47623 5.3791
lowerback 9.34863 -1.41403 7.75432
upperback -1.53789 -0.294159 10.3054
thorax -6.94592 -0.224825 6.75124
lowerneck -8.99306 -8.62548 -7.51858
upperneck 28.073 -13.7806 9.36343
head 11.868 -5.95369 2.89099
rclavicle 1.35174e-014 -3.18055e-014
rhumerus 33.4064 -37.9175 -19.6618
rradius 57.0293
rwrist 24.9824
rhand 17.2121 3.5082
rfingers 7.12502
rthumb 41.9296 -21.1054
lclavicle 1.35174e-014 -3.18055e-014
lhumerus -87.5036 -47.7318 117.896
lradius 98.1796
lwrist 31.4708
lhand 18.2854 18.8555
lfingers 7.12502
lthumb 42.9346 43.1245
rfemur -6.37925 18.8326 6.09353
rtibia 17.5645
rfoot -11.9563 -16.32
rtoes -13.0355
lfemur 4.04221 -6.16058 -27.158
ltibia 7.15625e-015
lfoot -3.88281 9.62259
ltoes -4.53053
1615
root 1.35471 16.1247 0.0011382 2.57035 -5.69416 5.59135
lowerback 9.57699 -1.4506 7.80558
upperback -1.42349 -0.31377 10.3797
thorax -6.95307 -0.234633 6.81334
lowerneck -8.88627 -8.74829 -7.57888
upperneck 27.8607 -13.9731 9.51595
head 11.8018 -6.03745 2.93028
rclavicle -2.34566e-014 -6.36111e-015
rhumerus 33.4679 -37.806 -19.9609
rradius 56.9348
rwrist 24.9905
rhand 17.5168 3.78822
rfingers 7.12502
rthumb 42.2152 -20.7293
lclavicle -2.34566e-014 -6.36111e-015
lhumerus -87.2613 -47.2695 118.181
lradius 98.2827
lwrist 31.238
lhand 17.8642 18.947
lfingers 7.12502
lthumb 42.5405 43.3534
rfemur -6.34966 18.7379 5.80056
rtibia 17.6932
rfoot -11.9084 -16.0256
rtoes -13.4468
lfemur 4.23359 -5.93161 -27.4841
ltibia 3.18055e-015
lfoot -3.86696 9.57857
ltoes -4.57158
1616
root 1.36745 16.1208 -0.00690902 2.42217 -5.80697 5.58647
lowerback 9.75689 -1.49784 8.04414
upperback -1.27416 -0.334254 10.4869
thorax -6.89644 -0.251001 6.80251
lowerneck -8.89689 -8.83961 -7.51352
upperneck 27.6584 -14.1093 9.57794
head 11.7395 -6.08876 2.91908
rclavicle 0 -5.725e-014
rhumerus 33.3839 -37.7545 -20.102
rradius 56.8747
rwrist 24.7408
rhand 17.6142 3.77779
rfingers 7.12502
rthumb 42.3064 -20.7088
lclavicle 0 -5.725e-014
lhumerus -86.7979 -47.1151 118.117
lradius 98.363
lwrist 30.3884
lhand 17.4153 18.8822
lfingers 7.12502
lthumb 42.12 43.4319
rfemur -6.3188 18.7603 5.77474
rtibia 17.7948
rfoot -11.8908 -15.9244
rtoes -13.704
lfemur 4.38623 -5.80114 -27.5445
ltibia 3.97569e-015
lfoot -3.89088 9.55952
ltoes -4.30566
1617
root 1.37828 16.1209 -0.018425 2.41108 -5.90683 5.54235
lowerback 9.84558 -1.5137 8.31076
upperback -1.17834 -0.317278 10.5722
thorax -6.84778 -0.250635 6.74438
lowerneck -8.97463 -8.89637 -7.39331
upperneck 27.701 -14.2065 9.54011
head 11.7695 -6.11848 2.86756
rclavicle 1.59028e-015 -8.26944e-014
rhumerus 33.0268 -37.6102 -19.9299
rradius 56.7919
rwrist 24.2036
rhand 17.3236 3.68049
rfingers 7.12502
rthumb 42.0341 -20.8981
lclavicle 1.59028e-015 -8.26944e-014
lhumerus -86.4535 -47.1423 118.089
lradius 98.328
lwrist 29.0241
lhand 17.21 18.8234
lfingers 7.12502
lthumb 41.9277 43.4377
rfemur -6.43847 18.8019 5.75919
rtibia 17.8562
rfoot -11.8234 -15.8685
rtoes -13.9761
lfemur 4.34987 -5.70161 -27.5305
ltibia -1.11319e-014
lfoot -3.84676 9.54238
ltoes -4.21229
1618
root 1.38732 16.1211 -0.028171 2.42179 -6.03634 5.61347
lowerback 9.91743 -1.54256 8.41383
upperback -1.16162 -0.32841 10.669
thorax -6.87215 -0.258117 6.80023
lowerneck -8.83867 -8.89799 -7.50843
upperneck 27.7341 -14.2054 9.55987
head 11.766 -6.13125 2.90049
rclavicle 2.38542e-015 -2.22639e-014
rhumerus 32.7073 -37.2669 -19.6829
rradius 56.7921
rwrist 23.7196
rhand 17.2635 3.62365
rfingers 7.12502
rthumb 41.9778 -20.9738
lclavicle 2.38542e-015 -2.22639e-014
lhumerus -86.3528 -47.1517 118.213
lradius 98.2372
lwrist 27.839
lhand 17.1631 18.7207
lfingers 7.12502
lthumb 41.8837 43.3495
rfemur -6.59568 18.8005 5.61386
rtibia 17.9273
rfoot -11.6757 -15.7977
rtoes -14.4282
lfemur 4.27411 -5.58196 -27.6396
ltibia -7.95139e-016
lfoot -3.76645 9.55416
ltoes -4.35846
1619
root 1.39336 16.1202 -0.0367335 2.38629 -6.17976 5.68593
lowerback 10.0199 -1.59391 8.44319
upperback -1.15829 -0.369559 10.7998
thorax -6.92639 -0.276881 6.94376
lowerneck -8.70775 -8.84788 -7.67212
upperneck 27.89 -14.0903 9.42314
head 11.7892 -6.11261 2.90186
rclavicle -6.36111e-015 -3.18055e-015
rhumerus 32.7149 -36.9615 -19.7354
rradius 56.7698
rwrist 23.471
rhand 17.3165 3.5548
rfingers 7.12502
rthumb 42.0274 -21.026
lclavicle -6.36111e-015 -3.18055e-015
lhumerus -86.3326 -47.197 118.3
lradius 98.1499
lwrist 27.4469
lhand 17.2314 18.5332
lfingers 7.12502
lthumb 41.9477 43.1407
rfemur -6.72144 18.8853 5.49366
rtibia 18.0375
rfoot -11.6032 -15.7538
rtoes -14.8939
lfemur 4.25776 -5.44208 -27.7375
ltibia -1.03368e-014
lfoot -3.75315 9.55974
ltoes -4.49643
1620
root 1.39963 16.1204 -0.0444287 2.38956 -6.3214 5.85926
lowerback 10.0251 -1.5946 8.37854
upperback -1.15986 -0.373789 10.8688
thorax -6.93038 -0.275131 7.05953
lowerneck -8.4953 -8.82129 -7.75404
upperneck 27.9273 -14.0016 9.25198
head 11.7424 -6.10753 2.87586
rclavicle -1.86858e-014 6.36111e-014
rhumerus 32.6432 -36.7531 -19.7676
rradius 56.7077
rwrist 23.3194
rhand 17.2287 3.4765
rfingers 7.12502
rthumb 41.9452 -21.1319
lclavicle -1.86858e-014 6.36111e-014
lhumerus -86.2843 -47.4011 118.35
lradius 97.9744
lwrist 27.8345
lhand 17.2729 18.3382
lfingers 7.12502
lthumb 41.9866 42.9327
rfemur -6.90531 19.0197 5.23844
rtibia 18.1471
rfoot -11.6508 -15.7453
rtoes -14.8376
lfemur 4.19072 -5.31483 -27.942
ltibia 3.18055e-015
lfoot -3.696 9.57735
ltoes -4.69052
